# xmcd
#
# Track frame offsets:
#	150
#	16152
#	37578
#	61812
#	79553
#	96975
#	113425
#	132612
#	149699
#	173804
#	195830
#	211663
#
# Disc length: 3333 seconds
#
# Revision: 0
# Processed by: cddbd v1.4PL0 Copyright (c) Steve Scherf et al.
# Submitted via: dBpowerAMP V4.0
#
DISCID=900d030c
DTITLE=Keith Urban - Golden Road (In ABC Order)
DYEAR=2002
DGENRE=Country
TTITLE0=Jeans On
TTITLE1=Rainin' On Sunday
TTITLE2=Somebody Like You
TTITLE3=Song For Dad
TTITLE4=What About Me
TTITLE5=Whenever I Run
TTITLE6=Who Wouldn't Want To Be Me
TTITLE7=You Look Good In My Shirt
TTITLE8=You Won
TTITLE9=You'll Think Of Me
TTITLE10=You're Not Alone Tonight
TTITLE11=You're Not My God
EXTD=
EXTT0=
EXTT1=
EXTT2=
EXTT3=
EXTT4=
EXTT5=
EXTT6=
EXTT7=
EXTT8=
EXTT9=
EXTT10=
EXTT11=
PLAYORDER=
